<svg width="35" height="35" viewBox="0 0 35 35" fill="none" xmlns="http://www.w3.org/2000/svg">
<path fill-rule="evenodd" clip-rule="evenodd" d="M7.3 17.5C7.3 23.1219 11.8781 27.7 17.5 27.7C23.1219 27.7 27.7 23.1219 27.7 17.5C27.7 11.8781 23.1219 7.3 17.5 7.3C11.8781 7.3 7.3 11.8781 7.3 17.5ZM5 17.5C5 24.3922 10.6078 30 17.5 30C24.3922 30 30 24.3922 30 17.5C30 10.6078 24.3922 5 17.5 5C10.6078 5 5 10.6078 5 17.5Z" fill="#0156FF"/>
<path fill-rule="evenodd" clip-rule="evenodd" d="M17.4996 11.1C18.1347 11.1 18.6496 11.6148 18.6496 12.25V17.225H23.6246C24.2597 17.225 24.7746 17.7398 24.7746 18.375C24.7746 19.0101 24.2597 19.525 23.6246 19.525H16.3496V12.25C16.3496 11.6148 16.8645 11.1 17.4996 11.1Z" fill="#0156FF"/>
</svg>
