<svg width="35" height="35" viewBox="0 0 35 35" fill="none" xmlns="http://www.w3.org/2000/svg">
<path fill-rule="evenodd" clip-rule="evenodd" d="M7.3 17.5C7.3 23.1219 11.8781 27.7 17.5 27.7C23.1219 27.7 27.7 23.1219 27.7 17.5C27.7 11.8781 23.1219 7.3 17.5 7.3C11.8781 7.3 7.3 11.8781 7.3 17.5ZM5 17.5C5 24.3922 10.6078 30 17.5 30C24.3922 30 30 24.3922 30 17.5C30 10.6078 24.3922 5 17.5 5C10.6078 5 5 10.6078 5 17.5Z" fill="black"/>
<path fill-rule="evenodd" clip-rule="evenodd" d="M11.0382 13.013C11.3689 12.8408 11.768 12.8669 12.0735 13.0808L17.5 16.8793L22.9265 13.0808C23.232 12.8669 23.6311 12.8408 23.9618 13.013C24.2925 13.1852 24.5 13.5271 24.5 13.9V21.4646C24.5 22.0169 24.0523 22.4646 23.5 22.4646C22.9477 22.4646 22.5 22.0169 22.5 21.4646V15.8207L18.0735 18.9192C17.7291 19.1603 17.2709 19.1603 16.9265 18.9192L12.5 15.8207V21.4646C12.5 22.0169 12.0523 22.4646 11.5 22.4646C10.9477 22.4646 10.5 22.0169 10.5 21.4646V13.9C10.5 13.5271 10.7075 13.1852 11.0382 13.013Z" fill="black"/>
</svg>
